<?xml version="1.0" standalone="no"?>
<!DOCTYPE svg PUBLIC "-//W3C//DTD SVG 20010904//EN"
 "http://www.w3.org/TR/2001/REC-SVG-20010904/DTD/svg10.dtd">
<svg version="1.0" xmlns="http://www.w3.org/2000/svg"
 width="1078.000000pt" height="1078.000000pt" viewBox="0 0 1078.000000 1078.000000"
 preserveAspectRatio="xMidYMid meet">
<metadata>
Created by potrace 1.15, written by Peter Selinger 2001-2017
</metadata>
<g transform="translate(0.000000,1078.000000) scale(0.100000,-0.100000)"
fill="#000000" stroke="none">
<path d="M5379 10709 c-1 -2 -36 -200 -78 -439 l-76 -435 -162 -12 c-1809
-132 -3345 -1339 -3907 -3071 -48 -148 -121 -433 -131 -512 -3 -25 10 20 29
100 40 174 84 331 130 466 47 140 96 264 104 264 16 0 212 -84 212 -91 0 -4
-20 -61 -44 -126 -134 -358 -226 -779 -252 -1151 -4 -56 -10 -104 -13 -107 -6
-3 -115 -23 -216 -39 -138 -21 -911 -158 -914 -162 -3 -2 0 -8 5 -13 5 -5 252
-50 549 -101 297 -50 550 -94 561 -97 19 -4 22 -14 28 -106 26 -382 130 -848
268 -1196 16 -40 27 -78 26 -83 -2 -6 -51 -29 -108 -53 l-105 -43 -33 81 c-54
134 -129 373 -171 545 -34 136 -52 231 -94 492 l-4 25 -2 -27 c-2 -48 50 -331
95 -508 282 -1125 978 -2082 1966 -2701 273 -171 666 -353 975 -453 338 -108
747 -187 1052 -202 163 -8 159 -6 167 -60 3 -24 9 -43 11 -40 3 2 -5 66 -18
142 -12 76 -24 133 -26 127 -3 -7 1 -38 6 -69 17 -88 20 -84 -61 -84 -235 0
-686 76 -1008 170 -135 39 -400 131 -430 150 -11 7 -7 25 25 104 21 52 41 100
45 105 4 7 57 -8 141 -39 372 -135 744 -218 1127 -249 67 -6 127 -13 132 -16
6 -3 10 -18 10 -32 0 -15 3 -24 6 -20 3 3 -16 133 -42 288 -26 155 -50 277
-52 271 -1 -5 6 -64 18 -129 11 -66 20 -123 20 -127 0 -12 -250 16 -450 50
-1629 283 -2922 1584 -3204 3224 -25 145 -54 406 -45 414 5 4 2069 -350 2075
-357 3 -2 -164 -154 -371 -338 -206 -183 -375 -338 -375 -345 0 -11 51 -2 700
125 135 27 247 47 249 45 2 -2 -195 -318 -438 -704 -242 -385 -441 -705 -441
-710 0 -6 2 -10 5 -10 3 0 324 200 712 445 389 244 708 444 709 442 1 -1 -11
-65 -26 -142 -16 -77 -29 -149 -29 -160 1 -11 16 54 35 145 19 90 40 169 47
176 6 6 86 57 177 114 91 57 175 110 188 118 16 10 -24 -80 -151 -339 -266
-541 -399 -799 -392 -759 16 99 12 103 -9 10 -12 -58 -21 -109 -18 -113 2 -5
16 5 31 22 181 213 658 735 663 727 14 -20 8 17 -82 539 -49 285 -87 521 -85
523 2 3 29 -18 60 -45 71 -64 207 -144 309 -184 80 -31 225 -63 339 -75 l57
-5 -1 -2067 c-1 -1137 -5 -2053 -10 -2037 -5 21 -6 13 -2 -25 3 -30 9 -64 13
-75 9 -25 3 -56 90 448 38 225 72 412 75 416 2 5 62 11 132 14 524 25 1111
179 1628 426 626 300 1200 770 1619 1326 297 393 525 829 680 1298 45 135 126
445 125 475 0 10 -20 -61 -44 -157 -43 -166 -141 -474 -183 -573 l-21 -46
-107 44 c-60 25 -109 46 -111 48 -2 1 10 36 27 76 119 289 229 745 260 1080 7
69 15 150 18 179 l7 55 95 17 c147 27 138 30 143 -43 l3 -63 2 68 c1 46 6 67
15 67 28 1 869 148 874 154 4 3 4 9 0 12 -3 3 -204 40 -446 82 l-441 76 -2 65
-2 66 -3 -62 c-2 -35 -8 -63 -14 -63 -24 0 -215 34 -221 39 -4 3 -12 65 -18
136 -36 420 -145 878 -294 1235 -5 11 18 25 97 58 56 23 107 42 113 42 12 0
98 -229 148 -393 46 -153 89 -330 120 -492 13 -71 25 -119 25 -105 1 35 -54
302 -90 440 -438 1658 -1789 2920 -3469 3239 -187 35 -497 71 -617 71 -34 0
-53 4 -53 12 0 6 -3 9 -6 5 -3 -3 16 -133 42 -289 31 -178 51 -272 54 -253 l5
31 131 -12 c750 -69 1495 -372 2094 -853 756 -608 1269 -1484 1424 -2436 26
-158 51 -384 43 -391 -6 -6 -2060 347 -2070 356 -4 3 161 157 368 340 207 183
372 337 368 341 -5 5 -217 -32 -472 -82 -256 -49 -468 -88 -473 -87 -4 2 193
322 438 711 245 390 443 711 440 714 -3 3 -324 -195 -713 -440 -389 -246 -709
-442 -711 -437 -2 5 8 66 22 136 14 70 26 134 25 143 -1 9 -16 -56 -34 -143
-19 -93 -38 -162 -46 -167 -8 -5 -95 -60 -194 -123 -99 -62 -182 -112 -184
-110 -2 1 124 260 280 573 155 314 284 570 285 568 1 -1 -4 -31 -11 -67 -8
-36 -14 -74 -14 -85 1 -11 12 32 25 95 13 63 23 118 21 123 -1 5 -158 -166
-347 -379 l-345 -386 -19 118 c-11 65 -21 113 -23 107 -3 -9 196 -1193 212
-1261 5 -18 -12 -9 -82 48 -164 133 -392 223 -595 237 l-88 6 1 2061 c1 1687
3 2050 14 2001 18 -87 18 -46 -1 60 -14 80 -21 108 -25 94z m-159 -901 c0 -2
-9 -55 -20 -118 -11 -63 -20 -115 -20 -116 0 -1 -48 -4 -107 -7 -214 -12 -466
-53 -708 -113 -141 -35 -423 -125 -525 -168 l-55 -22 -42 100 c-48 113 -50
122 -25 129 9 3 78 28 152 55 339 126 752 218 1125 250 100 9 225 14 225 10z
m581 -14 c325 -30 675 -104 976 -204 206 -68 289 -103 285 -121 -8 -39 -78
-199 -88 -199 -6 0 -44 14 -85 30 -319 132 -820 244 -1191 266 -66 4 -112 12
-114 18 -3 7 -13 60 -23 119 l-18 107 47 0 c25 0 120 -7 211 -16z m1559 -445
c292 -146 539 -303 794 -507 107 -86 337 -290 350 -310 3 -5 -33 -46 -79 -92
l-84 -83 -103 98 c-200 190 -503 416 -753 560 -105 61 -380 199 -452 228 l-42
16 45 107 c24 58 44 107 44 109 0 8 112 -43 280 -126z m-3632 19 c23 -56 39
-105 35 -109 -5 -4 -63 -32 -131 -63 -385 -174 -753 -420 -1102 -739 l-105
-96 -82 82 -83 81 48 49 c194 199 590 496 882 662 115 65 461 235 481 235 10
0 29 -33 57 -102z m1231 -1078 c-99 -574 -181 -1045 -182 -1046 -1 -2 -157
170 -345 382 -252 284 -342 379 -342 362 0 -13 40 -230 89 -483 50 -253 89
-460 88 -461 -1 -1 -321 200 -712 446 -619 391 -741 464 -721 432 361 -570
884 -1407 882 -1409 -2 -2 -211 37 -466 87 -254 49 -466 90 -471 90 -5 0 -9
-4 -9 -9 0 -5 168 -159 373 -342 204 -182 373 -335 375 -338 3 -9 -2067 -365
-2075 -357 -10 10 15 249 42 408 119 681 386 1272 824 1823 118 149 419 452
566 571 602 486 1295 781 2044 869 104 12 208 22 218 20 1 -1 -79 -471 -178
-1045z m-2625 141 l79 -80 -79 -87 c-351 -384 -600 -761 -788 -1190 l-32 -72
-111 45 c-111 46 -111 46 -100 72 37 90 173 363 227 456 182 316 414 628 639
858 41 42 78 77 81 77 3 0 41 -36 84 -79z m6310 -47 c209 -227 406 -492 559
-752 98 -165 276 -526 266 -537 -3 -2 -52 -24 -110 -48 l-106 -44 -59 130
c-68 152 -191 377 -288 527 -140 215 -378 513 -515 645 l-41 39 82 83 c46 46
87 82 93 80 5 -2 59 -57 119 -123z m-4184 -813 c168 -188 306 -350 308 -360 3
-15 -48 -331 -64 -401 -5 -20 -64 92 -290 549 -156 316 -284 577 -284 580 0 3
6 -1 13 -10 7 -8 149 -169 317 -358z m-560 -319 c432 -272 787 -496 789 -498
4 -4 -87 -556 -93 -561 -1 -1 -380 376 -841 838 l-840 840 100 -62 c55 -34
453 -285 885 -557z m3958 586 c-8 -13 -246 -390 -528 -838 -283 -448 -528
-838 -546 -866 l-33 -51 -278 48 c-153 26 -280 48 -283 49 -5 0 1673 1680
1679 1680 2 0 -3 -10 -11 -22z m-4543 -1272 c236 -46 431 -87 432 -92 2 -5 55
-90 118 -189 62 -99 112 -181 111 -183 -2 -1 -252 121 -557 272 -305 151 -549
275 -544 275 6 1 203 -37 440 -83z m4590 45 c-11 -10 -170 -152 -354 -315
-217 -193 -340 -295 -350 -292 -9 3 -103 19 -208 37 -106 18 -191 34 -189 36
5 5 1110 553 1116 553 2 0 -4 -9 -15 -19z m-2409 -221 c399 -50 729 -321 847
-695 55 -175 62 -384 17 -555 -120 -466 -556 -785 -1035 -757 -292 18 -565
162 -738 390 -143 187 -208 380 -208 617 -1 551 434 993 991 1009 25 0 82 -4
126 -9z m-959 -292 c-143 -171 -237 -398 -254 -615 l-6 -83 -2031 1 c-1117 1
-2022 4 -2011 6 97 19 4297 741 4318 742 l29 1 -45 -52z m6013 -724 c-8 -2
-982 -171 -2165 -374 -1182 -204 -2163 -373 -2179 -376 l-30 -6 43 48 c144
163 236 377 262 608 l12 106 2036 -1 c1120 -1 2029 -3 2021 -5z m-1225 -311
c-69 -793 -365 -1532 -861 -2153 -135 -170 -430 -465 -594 -596 -589 -470
-1277 -763 -1990 -848 -230 -27 -250 -28 -250 -14 1 33 356 2065 361 2069 4 2
141 -147 304 -331 366 -412 376 -423 381 -417 2 2 -36 214 -86 472 -50 257
-90 471 -88 476 2 5 318 -190 703 -432 385 -243 705 -444 712 -446 7 -3 13 -1
13 3 0 5 -200 326 -444 714 -245 388 -444 706 -442 707 2 3 915 -175 934 -182
50 -18 -36 67 -362 357 -205 183 -372 335 -370 337 5 5 2035 358 2067 360 17
1 18 -5 12 -76z m-5557 -325 c105 -18 192 -35 192 -39 0 -3 -253 -130 -562
-282 -310 -153 -554 -269 -543 -258 108 104 691 611 704 611 9 0 103 -14 209
-32z m541 -94 c146 -25 267 -47 268 -48 1 -1 -378 -382 -844 -846 -465 -465
-842 -838 -837 -830 9 17 1003 1598 1070 1703 25 39 51 67 60 67 10 0 137 -21
283 -46z m3042 -244 c310 -155 557 -279 549 -277 -8 2 -209 42 -446 87 l-431
84 -79 125 c-152 241 -164 261 -161 261 2 0 258 -126 568 -280z m-341 -656
c496 -497 817 -825 790 -808 -70 43 -1724 1085 -1726 1087 -5 5 94 557 99 557
1 0 378 -376 837 -836z m-854 64 c205 -408 482 -981 466 -963 -22 26 -577 652
-608 685 l-23 25 37 213 c20 116 38 212 39 212 2 0 42 -78 89 -172z m-4597
-135 c180 -409 465 -832 795 -1181 l60 -63 -80 -80 c-43 -44 -84 -78 -91 -77
-15 4 -186 189 -288 313 -152 185 -313 420 -434 632 -66 116 -221 436 -221
455 0 10 37 31 98 56 53 23 102 41 108 41 5 1 29 -43 53 -96z m7809 55 c56
-23 102 -45 102 -49 0 -18 -125 -280 -186 -392 -184 -335 -426 -670 -662 -917
l-101 -105 -82 82 -83 82 70 76 c243 268 395 469 561 743 63 106 198 368 241
470 13 28 26 52 30 52 4 0 53 -19 110 -42z m-6583 -1627 c279 -219 643 -438
915 -551 30 -13 59 -26 63 -30 6 -6 -62 -193 -78 -218 -4 -5 -172 72 -292 131
-375 189 -731 439 -1052 739 l-85 79 83 83 84 84 130 -119 c72 -66 176 -155
232 -198z m5623 55 c-323 -308 -747 -593 -1176 -791 -79 -36 -144 -65 -146
-65 -2 0 -23 48 -47 106 -24 58 -45 102 -46 97 -2 -6 12 -45 30 -89 57 -133
67 -115 -90 -172 -424 -155 -860 -249 -1254 -269 -150 -7 -138 -21 -111 127
l17 94 40 7 c22 4 101 12 175 19 548 47 1159 241 1656 525 290 167 540 353
824 614 l65 60 83 -82 84 -82 -104 -99z"/>
<path d="M5241 6195 c-328 -62 -585 -308 -655 -625 -24 -107 -28 -180 -16
-275 41 -333 273 -603 597 -697 65 -19 102 -23 218 -23 164 1 223 14 360 81
167 82 291 205 370 369 173 354 77 775 -229 1010 -83 63 -216 128 -307 150
-93 22 -250 27 -338 10z"/>
<path d="M5422 10465 c0 -16 2 -22 5 -12 2 9 2 23 0 30 -3 6 -5 -1 -5 -18z"/>
<path d="M5436 10385 c3 -27 12 -79 19 -115 12 -57 13 -59 9 -15 -3 28 -12 79
-19 115 -12 57 -13 59 -9 15z"/>
<path d="M5472 10175 c0 -16 2 -22 5 -12 2 9 2 23 0 30 -3 6 -5 -1 -5 -18z"/>
<path d="M5480 10134 c-1 -23 44 -274 48 -270 4 5 -38 268 -44 275 -2 2 -4 0
-4 -5z"/>
<path d="M5630 9264 c-1 -23 44 -274 48 -270 4 5 -38 268 -44 275 -2 2 -4 0
-4 -5z"/>
<path d="M5680 8974 c-1 -23 44 -274 48 -270 4 5 -38 268 -44 275 -2 2 -4 0
-4 -5z"/>
<path d="M5730 8684 c-1 -23 44 -274 48 -270 4 5 -38 268 -44 275 -2 2 -4 0
-4 -5z"/>
<path d="M5782 8375 c0 -16 2 -22 5 -12 2 9 2 23 0 30 -3 6 -5 -1 -5 -18z"/>
<path d="M5796 8295 c3 -27 12 -79 19 -115 12 -57 13 -59 9 -15 -3 28 -12 79
-19 115 -12 57 -13 59 -9 15z"/>
<path d="M5832 8085 c0 -16 2 -22 5 -12 2 9 2 23 0 30 -3 6 -5 -1 -5 -18z"/>
<path d="M5840 8044 c-1 -23 44 -274 48 -270 4 5 -38 268 -44 275 -2 2 -4 0
-4 -5z"/>
<path d="M5890 7754 c-1 -23 44 -274 48 -270 4 5 -38 268 -44 275 -2 2 -4 0
-4 -5z"/>
<path d="M6586 7564 c-21 -107 -37 -197 -34 -199 2 -2 21 84 42 191 21 107 37
197 34 199 -2 2 -21 -84 -42 -191z"/>
<path d="M997 6088 c-10 -59 -17 -117 -16 -130 1 -13 10 31 20 97 10 66 18
124 16 130 -2 5 -11 -38 -20 -97z"/>
<path d="M9772 6020 c0 -19 2 -27 5 -17 2 9 2 25 0 35 -3 9 -5 1 -5 -18z"/>
<path d="M9783 5945 c0 -22 2 -30 4 -17 2 12 2 30 0 40 -3 9 -5 -1 -4 -23z"/>
<path d="M973 5890 c0 -25 2 -35 4 -22 2 12 2 32 0 45 -2 12 -4 2 -4 -23z"/>
<path d="M9793 5860 c0 -25 2 -35 4 -22 2 12 2 32 0 45 -2 12 -4 2 -4 -23z"/>
<path d="M963 5790 c0 -30 2 -43 4 -27 2 15 2 39 0 55 -2 15 -4 2 -4 -28z"/>
<path d="M9803 5750 c0 -36 2 -50 4 -32 2 17 2 47 0 65 -2 17 -4 3 -4 -33z"/>
<path d="M953 5650 c0 -47 2 -66 4 -42 2 23 2 61 0 85 -2 23 -4 4 -4 -43z"/>
<path d="M953 5130 c0 -47 2 -66 4 -42 2 23 2 61 0 85 -2 23 -4 4 -4 -43z"/>
<path d="M9803 5025 c0 -33 2 -45 4 -27 2 18 2 45 0 60 -2 15 -4 0 -4 -33z"/>
<path d="M963 4990 c0 -30 2 -43 4 -27 2 15 2 39 0 55 -2 15 -4 2 -4 -28z"/>
<path d="M9793 4920 c0 -25 2 -35 4 -22 2 12 2 32 0 45 -2 12 -4 2 -4 -23z"/>
<path d="M973 4890 c0 -25 2 -35 4 -22 2 12 2 32 0 45 -2 12 -4 2 -4 -23z"/>
<path d="M9781 4843 c0 -17 -12 -98 -26 -179 -26 -151 -28 -170 -21 -163 9 9
57 321 53 347 -4 25 -4 25 -6 -5z"/>
<path d="M4790 3504 c-1 -23 44 -274 48 -270 4 5 -38 268 -44 275 -2 2 -4 0
-4 -5z"/>
<path d="M4166 3204 c-21 -107 -37 -197 -34 -199 2 -2 21 84 42 191 21 107 37
197 34 199 -2 2 -21 -84 -42 -191z"/>
<path d="M4840 3214 c-1 -23 44 -274 48 -270 4 5 -38 268 -44 275 -2 2 -4 0
-4 -5z"/>
<path d="M4890 2924 c-1 -23 44 -274 48 -270 4 5 -38 268 -44 275 -2 2 -4 0
-4 -5z"/>
<path d="M4940 2634 c-1 -23 44 -274 48 -270 4 5 -38 268 -44 275 -2 2 -4 0
-4 -5z"/>
<path d="M4992 2325 c0 -16 2 -22 5 -12 2 9 2 23 0 30 -3 6 -5 -1 -5 -18z"/>
<path d="M5006 2245 c3 -27 12 -79 19 -115 12 -57 13 -59 9 -15 -3 28 -12 79
-19 115 -12 57 -13 59 -9 15z"/>
<path d="M5042 2035 c0 -16 2 -22 5 -12 2 9 2 23 0 30 -3 6 -5 -1 -5 -18z"/>
<path d="M5050 1994 c-1 -23 44 -274 48 -270 4 5 -38 268 -44 275 -2 2 -4 0
-4 -5z"/>
<path d="M5250 834 c-1 -23 44 -274 48 -270 4 5 -38 268 -44 275 -2 2 -4 0 -4
-5z"/>
<path d="M5300 544 c-1 -23 44 -274 48 -270 4 5 -38 268 -44 275 -2 2 -4 0 -4
-5z"/>
<path d="M5352 235 c0 -16 2 -22 5 -12 2 9 2 23 0 30 -3 6 -5 -1 -5 -18z"/>
</g>
</svg>
